<?xml version="1.0" encoding="utf-8"?>
<!-- Generator: Adobe Illustrator 16.0.0, SVG Export Plug-In . SVG Version: 6.00 Build 0)  -->
<!DOCTYPE svg PUBLIC "-//W3C//DTD SVG 1.1//EN" "http://www.w3.org/Graphics/SVG/1.1/DTD/svg11.dtd">
<svg version="1.1" id="icons" xmlns="http://www.w3.org/2000/svg" xmlns:xlink="http://www.w3.org/1999/xlink" x="0px" y="0px"
	 width="64px" height="64px" viewBox="0 0 64 64" enable-background="new 0 0 64 64" xml:space="preserve">
<g>
	<rect x="3.5" y="17.502" fill="#E6E9ED" width="40.99" height="26.007"/>
	<path fill="#545C66" d="M44.49,16.492v1.01H3.5v-1.01c0-1.09,0.87-1.98,1.96-2H5.5h36.99C43.59,14.492,44.49,15.392,44.49,16.492z"
		/>
	<rect x="3.5" y="17.502" fill="#545C66" width="2.063" height="25.989"/>
	<rect x="42.483" y="17.502" fill="#545C66" width="2.063" height="25.989"/>
	<path fill="#656D78" d="M28.49,43.492h12.99c-1.65,0-3,1.34-3,3s1.35,3,3,3H2.5c-1.11,0-2-0.891-2-2v-4h3h12.99H28.49z"/>
	<path fill="#AAB2BD" d="M16.49,43.491v2.001c0,0.55,0.45,1,1,1h10c0.55,0,1-0.45,1-1v-2.001H16.49z"/>
	<path fill="#CCD1D9" d="M33.498,32.5h-22c-0.553,0-1-0.447-1-1s0.447-1,1-1h22c0.553,0,1,0.447,1,1S34.051,32.5,33.498,32.5z"/>
	<path fill="#CCD1D9" d="M33.498,35.5h-22c-0.553,0-1-0.447-1-1s0.447-1,1-1h22c0.553,0,1,0.447,1,1S34.051,35.5,33.498,35.5z"/>
	<path fill="#CCD1D9" d="M28.498,38.5h-12c-0.553,0-1-0.447-1-1s0.447-1,1-1h12c0.553,0,1,0.447,1,1S29.051,38.5,28.498,38.5z"/>
	<g>
		<path fill="#E6E9ED" d="M41.48,32.5c-0.021,0-0.051,0-0.07,0c-1.62-0.04-2.93-1.36-2.93-3c0-1.66,1.35-3.01,3-3.01v0.01h3.01
			h18.009v6H41.48z"/>
		<g>
			<g>
				<path fill="#5D9CEC" d="M41.483,33.498c-2.207,0-4.003-1.796-4.003-4.003s1.796-4.003,4.003-4.003c0.553,0,1,0.447,1,1
					s-0.447,1-1,1c-1.104,0-2.003,0.898-2.003,2.003s0.898,2.003,2.003,2.003c0.553,0,1,0.447,1,1S42.036,33.498,41.483,33.498z"/>
			</g>
			<g>
				<path fill="#5D9CEC" d="M62.5,27.496H41.479c-0.553,0-1-0.447-1-1s0.447-1,1-1H62.5c0.553,0,1,0.447,1,1
					S63.053,27.496,62.5,27.496z"/>
			</g>
			<g>
				<path fill="#5D9CEC" d="M62.5,33.498H41.479c-0.553,0-1-0.447-1-1s0.447-1,1-1H62.5c0.553,0,1,0.447,1,1
					S63.053,33.498,62.5,33.498z"/>
			</g>
		</g>
	</g>
	<g>
		<path fill="#E6E9ED" d="M41.48,40.505c-0.021,0-0.051,0-0.07,0c-1.62-0.04-2.93-1.36-2.93-3c0-1.66,1.35-3.01,3-3.01v0.01h3.01
			h18.009v6H41.48z"/>
		<g>
			<g>
				<path fill="#4A89DC" d="M41.483,41.503c-2.207,0-4.003-1.796-4.003-4.003s1.796-4.003,4.003-4.003c0.553,0,1,0.447,1,1
					s-0.447,1-1,1c-1.104,0-2.003,0.898-2.003,2.003s0.898,2.003,2.003,2.003c0.553,0,1,0.447,1,1S42.036,41.503,41.483,41.503z"/>
			</g>
			<g>
				<path fill="#4A89DC" d="M62.5,35.501H41.479c-0.553,0-1-0.447-1-1s0.447-1,1-1H62.5c0.553,0,1,0.447,1,1
					S63.053,35.501,62.5,35.501z"/>
			</g>
			<g>
				<path fill="#4A89DC" d="M62.5,41.503H41.479c-0.553,0-1-0.447-1-1s0.447-1,1-1H62.5c0.553,0,1,0.447,1,1
					S63.053,41.503,62.5,41.503z"/>
			</g>
		</g>
	</g>
	<g>
		<path fill="#E6E9ED" d="M41.48,48.51c-0.021,0-0.051,0-0.07,0c-1.62-0.04-2.93-1.36-2.93-3c0-1.66,1.35-3.01,3-3.01v0.01h3.01
			h18.009v6H41.48z"/>
		<g>
			<g>
				<path fill="#5D9CEC" d="M41.483,49.508c-2.207,0-4.003-1.796-4.003-4.003s1.796-4.003,4.003-4.003c0.553,0,1,0.447,1,1
					s-0.447,1-1,1c-1.104,0-2.003,0.898-2.003,2.003s0.898,2.003,2.003,2.003c0.553,0,1,0.447,1,1S42.036,49.508,41.483,49.508z"/>
			</g>
			<g>
				<path fill="#5D9CEC" d="M62.5,43.506H41.479c-0.553,0-1-0.447-1-1s0.447-1,1-1H62.5c0.553,0,1,0.447,1,1
					S63.053,43.506,62.5,43.506z"/>
			</g>
			<g>
				<path fill="#5D9CEC" d="M62.5,49.508H41.479c-0.553,0-1-0.447-1-1s0.447-1,1-1H62.5c0.553,0,1,0.447,1,1
					S63.053,49.508,62.5,49.508z"/>
			</g>
		</g>
	</g>
	<g>
		<path fill="#CCD1D9" d="M34.491,26.493c0,0.55-0.45,1-1,1H11.509c-0.55,0-1-0.45-1-1v-1c0-0.55,0.45-1,1-1h21.982
			c0.55,0,1,0.45,1,1V26.493z"/>
		<path fill="#5D9CEC" d="M11.509,24.493c-0.55,0-1,0.45-1,1v1c0,0.55,0.45,1,1,1h12.486l-3-3H11.509z"/>
	</g>
</g>
</svg>
